<svg xmlns="http://www.w3.org/2000/svg" width="500" height="500" viewBox="0 0 500 500">
<g>
<path d="M 152.00 375.50 C151.87,374.95 151.82,374.16 151.88,373.75 C151.95,373.34 151.09,373.00 149.97,373.00 C148.85,373.00 147.68,372.32 147.36,371.49 C146.71,369.81 148.61,366.99 150.37,367.02 C153.05,367.05 153.77,368.54 153.00,372.50 C152.58,374.70 152.12,376.05 152.00,375.50 ZM 151.77 370.19 C151.99,369.53 151.45,369.00 150.58,369.00 C149.71,369.00 149.00,369.71 149.00,370.58 C149.00,372.35 151.15,372.04 151.77,370.19 ZM 341.50 375.00 C341.16,374.45 341.92,373.97 343.19,373.94 L 345.50 373.87 L 343.25 372.97 C339.25,371.36 341.40,366.51 345.62,367.61 C347.24,368.03 347.54,368.76 347.18,371.32 C346.59,375.46 343.16,377.69 341.50,375.00 ZM 345.77 370.19 C345.99,369.53 345.45,369.00 344.58,369.00 C343.71,369.00 343.00,369.71 343.00,370.58 C343.00,372.35 345.15,372.04 345.77,370.19 ZM 169.50 374.00 C169.84,373.45 170.32,373.00 170.56,373.00 C170.80,373.00 171.00,373.45 171.00,374.00 C171.00,374.55 170.52,375.00 169.94,375.00 C169.36,375.00 169.16,374.55 169.50,374.00 ZM 138.31 369.14 C139.51,367.02 140.93,365.19 141.45,365.08 C141.97,364.97 142.93,366.71 143.59,368.94 C144.25,371.17 144.39,373.00 143.89,373.00 C143.40,373.00 143.00,372.55 143.00,372.00 C143.00,371.45 142.13,371.00 141.06,371.00 C139.99,371.00 138.84,371.45 138.50,372.00 C138.16,372.55 137.48,373.00 137.00,373.00 C136.51,373.00 137.10,371.26 138.31,369.14 ZM 142.00 368.00 C142.00,367.45 141.80,367.00 141.56,367.00 C141.32,367.00 140.84,367.45 140.50,368.00 C140.16,368.55 140.36,369.00 140.94,369.00 C141.52,369.00 142.00,368.55 142.00,368.00 ZM 157.00 370.50 C157.00,369.12 157.41,368.00 157.91,368.00 C158.40,368.00 158.58,368.90 158.29,370.00 C157.57,372.76 159.84,372.55 160.97,369.75 C161.84,367.59 161.88,367.61 161.94,370.25 C161.99,372.53 161.58,373.00 159.50,373.00 C157.50,373.00 157.00,372.50 157.00,370.50 ZM 165.02 371.25 C165.02,370.29 165.47,368.83 166.00,368.00 C166.74,366.86 166.97,367.28 166.98,369.75 C166.99,371.54 166.55,373.00 166.00,373.00 C165.45,373.00 165.01,372.21 165.02,371.25 ZM 179.33 371.42 C179.00,370.55 179.46,369.11 180.36,368.21 C181.87,366.70 182.13,366.70 183.61,368.18 C185.09,369.66 185.03,369.85 182.86,370.55 C180.60,371.26 180.59,371.33 182.50,372.08 C184.38,372.81 184.36,372.86 182.22,372.93 C180.96,372.97 179.66,372.29 179.33,371.42 ZM 191.65 371.53 C191.34,370.72 191.77,369.37 192.61,368.53 C194.39,366.76 195.63,366.59 196.50,368.00 C196.84,368.55 196.19,369.00 195.06,369.00 C192.55,369.00 192.31,371.67 194.75,372.31 C196.13,372.67 196.05,372.79 194.36,372.88 C193.18,372.95 191.96,372.34 191.65,371.53 ZM 199.67 372.33 C198.46,371.12 198.97,368.22 200.50,367.64 C202.95,366.70 205.00,368.05 205.00,370.61 C205.00,372.45 204.46,373.00 202.67,373.00 C201.38,373.00 200.03,372.70 199.67,372.33 ZM 203.00 370.50 C203.00,369.67 202.58,369.00 202.06,369.00 C200.80,369.00 199.89,370.56 200.69,371.36 C201.82,372.49 203.00,372.05 203.00,370.50 ZM 208.36 371.49 C207.64,369.61 209.88,366.74 211.57,367.39 C212.29,367.66 213.09,366.79 213.46,365.32 C214.49,361.19 215.30,363.50 214.56,368.45 C213.96,372.44 213.57,373.00 211.41,373.00 C210.05,373.00 208.68,372.32 208.36,371.49 ZM 212.77 370.19 C212.99,369.53 212.45,369.00 211.58,369.00 C210.71,369.00 210.00,369.71 210.00,370.58 C210.00,372.35 212.15,372.04 212.77,370.19 ZM 217.33 371.42 C216.53,369.33 219.20,366.76 221.32,367.57 C222.25,367.92 223.00,369.29 223.00,370.61 C223.00,372.50 222.47,373.00 220.47,373.00 C219.08,373.00 217.66,372.29 217.33,371.42 ZM 221.77 370.19 C221.99,369.53 221.45,369.00 220.58,369.00 C219.71,369.00 219.00,369.71 219.00,370.58 C219.00,372.35 221.15,372.04 221.77,370.19 ZM 232.79 372.32 C233.76,371.93 233.80,371.47 232.96,370.45 C231.75,368.99 232.45,367.00 234.17,367.00 C234.74,367.00 234.96,367.66 234.65,368.47 C234.34,369.28 234.53,370.21 235.06,370.54 C236.45,371.40 235.19,373.01 233.19,372.92 C232.08,372.87 231.95,372.66 232.79,372.32 ZM 238.33 371.42 C238.00,370.55 238.35,369.22 239.12,368.45 C240.92,366.65 245.34,367.68 244.56,369.71 C244.25,370.51 244.00,371.58 244.00,372.08 C244.00,373.67 238.97,373.08 238.33,371.42 ZM 243.00 370.50 C243.00,369.67 242.32,369.00 241.50,369.00 C240.68,369.00 240.00,369.67 240.00,370.50 C240.00,371.33 240.68,372.00 241.50,372.00 C242.32,372.00 243.00,371.33 243.00,370.50 ZM 247.82 368.80 C248.22,364.27 250.00,360.96 250.00,364.73 C250.00,366.01 250.83,367.13 252.06,367.52 C255.38,368.57 254.22,372.43 250.47,372.80 C247.47,373.09 247.44,373.05 247.82,368.80 ZM 252.00 370.50 C252.00,369.67 251.32,369.00 250.50,369.00 C248.94,369.00 248.52,370.18 249.67,371.33 C250.82,372.48 252.00,372.06 252.00,370.50 ZM 256.72 371.75 C256.09,370.01 257.80,367.00 259.41,367.00 C261.40,367.00 263.12,369.51 262.41,371.37 C261.68,373.28 257.37,373.57 256.72,371.75 ZM 261.00 370.50 C261.00,369.67 260.33,369.00 259.50,369.00 C258.67,369.00 258.00,369.67 258.00,370.50 C258.00,371.33 258.67,372.00 259.50,372.00 C260.33,372.00 261.00,371.33 261.00,370.50 ZM 265.07 371.75 C265.19,369.62 266.44,367.51 267.75,367.25 C268.44,367.11 269.00,367.45 269.00,368.00 C269.00,368.55 268.55,369.00 268.00,369.00 C267.45,369.00 267.00,369.90 267.00,371.00 C267.00,372.10 266.55,373.00 266.00,373.00 C265.45,373.00 265.03,372.44 265.07,371.75 ZM 277.06 370.75 C277.03,369.24 277.41,368.00 277.92,368.00 C278.42,368.00 279.55,367.73 280.42,367.39 C281.68,366.91 281.97,367.46 281.86,370.14 C281.77,372.49 281.60,372.82 281.29,371.25 C281.06,370.01 280.43,369.00 279.90,369.00 C279.37,369.00 278.53,370.01 278.03,371.25 C277.16,373.41 277.12,373.39 277.06,370.75 ZM 285.36 371.49 C285.01,370.57 285.42,369.16 286.29,368.29 C288.41,366.16 291.23,367.38 290.82,370.25 C290.43,373.02 286.31,373.96 285.36,371.49 ZM 289.77 370.19 C289.99,369.53 289.45,369.00 288.58,369.00 C287.71,369.00 287.00,369.71 287.00,370.58 C287.00,372.35 289.15,372.04 289.77,370.19 ZM 300.43 372.10 C302.15,371.43 302.18,371.28 300.68,370.71 C299.75,370.35 299.00,369.65 299.00,369.14 C299.00,367.70 301.86,366.96 302.62,368.20 C303.04,368.87 302.85,369.03 302.15,368.60 C301.52,368.20 301.00,368.36 301.00,368.94 C301.00,369.52 301.45,370.00 302.00,370.00 C302.55,370.00 303.00,370.67 303.00,371.50 C303.00,372.41 302.11,372.97 300.75,372.93 C298.69,372.87 298.66,372.80 300.43,372.10 ZM 306.67 372.33 C305.40,371.07 306.01,368.21 307.68,367.57 C308.60,367.21 310.00,367.57 310.79,368.36 C312.03,369.61 311.93,369.89 309.98,370.51 C308.23,371.06 308.04,371.41 309.12,372.09 C310.25,372.81 310.21,372.97 308.92,372.98 C308.05,372.99 307.03,372.70 306.67,372.33 ZM 309.73 369.40 C309.40,369.06 308.53,369.03 307.81,369.32 C307.01,369.64 307.25,369.87 308.42,369.92 C309.47,369.96 310.06,369.73 309.73,369.40 ZM 314.00 370.50 C314.00,367.39 315.70,367.20 316.30,370.25 L 316.75 372.50 L 317.49 370.25 C317.90,369.01 318.68,368.00 319.22,368.00 C319.77,368.00 319.94,368.71 319.61,369.58 C319.27,370.45 319.00,371.58 319.00,372.08 C319.00,372.59 317.88,373.00 316.50,373.00 C314.50,373.00 314.00,372.50 314.00,370.50 ZM 328.10 370.31 C328.15,368.76 328.56,366.38 329.00,365.00 C329.66,362.95 329.82,363.35 329.90,367.19 C329.96,369.77 329.55,372.16 329.00,372.50 C328.42,372.86 328.04,371.95 328.10,370.31 ZM 333.00 370.50 C333.00,369.12 333.48,368.00 334.07,368.00 C334.68,368.00 334.86,368.85 334.50,370.00 C333.62,372.78 335.84,372.56 336.97,369.75 C337.84,367.59 337.88,367.61 337.94,370.25 C337.99,372.53 337.58,373.00 335.50,373.00 C333.50,373.00 333.00,372.50 333.00,370.50 ZM 350.33 371.42 C350.00,370.55 350.35,369.22 351.12,368.45 C352.92,366.65 357.34,367.68 356.56,369.71 C356.25,370.51 356.00,371.58 356.00,372.08 C356.00,373.67 350.97,373.08 350.33,371.42 ZM 355.00 370.50 C355.00,369.67 354.33,369.00 353.50,369.00 C352.67,369.00 352.00,369.67 352.00,370.50 C352.00,371.33 352.67,372.00 353.50,372.00 C354.33,372.00 355.00,371.33 355.00,370.50 ZM 359.76 370.50 C360.02,369.12 360.81,368.00 361.52,368.00 C362.54,368.00 362.57,368.53 361.66,370.49 C360.17,373.70 359.14,373.71 359.76,370.50 ZM 123.97 347.53 C124.81,346.53 125.08,342.90 124.84,336.03 L 124.50 326.00 L 131.35 326.00 C137.81,326.00 138.40,326.20 141.60,329.40 C145.66,333.46 146.16,338.59 143.00,343.77 C140.49,347.89 137.58,349.00 129.31,349.00 C123.66,349.00 122.92,348.80 123.97,347.53 ZM 136.51 345.98 C138.82,343.44 139.59,334.44 137.79,331.10 C135.89,327.56 133.18,326.12 131.99,328.00 C130.93,329.65 130.64,343.90 131.61,346.42 C132.43,348.57 134.32,348.40 136.51,345.98 ZM 149.71 346.99 C146.68,344.60 145.53,340.37 146.92,336.72 C147.97,333.96 152.57,331.00 155.82,331.00 C158.81,331.00 163.00,334.84 163.00,337.57 C163.00,339.82 162.63,340.00 158.00,340.00 C153.16,340.00 153.00,340.09 153.00,342.88 C153.00,344.46 153.72,346.35 154.60,347.09 C155.95,348.20 156.67,348.15 159.10,346.76 C161.38,345.45 162.00,345.38 162.00,346.44 C162.00,349.57 153.47,349.95 149.71,346.99 ZM 157.50 336.00 C157.50,332.22 153.61,332.52 153.18,336.33 C152.89,338.79 153.16,339.12 155.18,338.83 C156.90,338.58 157.50,337.86 157.50,336.00 ZM 164.80 347.80 C166.42,346.18 166.44,329.39 164.82,328.39 C163.41,327.52 166.27,326.18 169.75,326.07 C171.93,326.00 172.00,326.29 172.00,335.57 C172.00,340.83 172.47,346.00 173.04,347.07 C174.00,348.86 173.70,349.00 168.84,349.00 C164.76,349.00 163.87,348.73 164.80,347.80 ZM 175.80 347.80 C176.47,347.13 177.00,343.91 177.00,340.50 C177.00,337.09 176.47,333.87 175.80,333.20 C174.87,332.27 175.18,332.00 177.22,332.00 C178.66,332.00 180.55,331.73 181.42,331.39 C182.78,330.87 183.00,331.89 183.00,338.69 C183.00,343.51 183.47,347.07 184.20,347.80 C185.13,348.73 184.20,349.00 180.00,349.00 C175.80,349.00 174.87,348.73 175.80,347.80 ZM 188.92 346.08 C185.65,342.80 185.29,340.27 187.51,335.99 C189.42,332.29 195.15,330.33 199.33,331.93 C202.31,333.07 202.50,335.27 199.67,335.82 C198.70,336.01 198.00,335.51 198.00,334.63 C198.00,332.19 195.81,331.54 194.35,333.54 C192.75,335.72 192.56,343.32 194.04,346.07 C195.30,348.44 196.77,348.52 199.17,346.35 C200.78,344.89 201.00,344.88 201.00,346.24 C201.00,350.10 192.84,349.99 188.92,346.08 ZM 204.50 340.50 C204.50,332.13 204.54,332.00 206.97,332.00 L 209.45 332.00 L 207.22 330.44 C204.68,328.67 204.38,326.76 206.37,325.11 C208.55,323.30 211.15,324.89 210.92,327.88 C210.81,329.32 210.98,331.17 211.31,332.00 C211.65,332.83 212.05,336.99 212.21,341.25 L 212.50 349.00 L 208.50 349.00 L 204.50 349.00 L 204.50 340.50 ZM 217.39 348.02 C214.74,346.95 213.88,343.87 215.39,340.83 C216.22,339.15 217.85,338.25 221.27,337.58 C223.95,337.06 226.00,336.11 226.00,335.39 C226.00,333.21 223.76,332.61 222.42,334.44 C221.55,335.63 220.47,335.97 219.02,335.51 C217.42,335.00 217.16,334.51 217.97,333.54 C221.07,329.80 231.46,331.70 232.43,336.18 C232.70,337.46 233.06,340.86 233.21,343.75 L 233.50 349.00 L 226.50 348.94 C222.65,348.90 218.55,348.49 217.39,348.02 ZM 225.80 342.68 C226.10,338.19 226.02,338.06 223.80,338.87 C221.15,339.84 220.16,344.28 222.08,346.59 C224.11,349.04 225.48,347.60 225.80,342.68 ZM 237.06 348.06 C235.96,347.36 235.87,346.61 236.67,344.83 L 237.70 342.50 L 238.42 344.75 C238.90,346.25 239.93,347.00 241.51,347.00 C246.16,347.00 245.75,342.97 240.89,340.95 C238.02,339.76 236.00,337.31 236.00,335.01 C236.00,334.40 237.61,333.22 239.59,332.40 C242.44,331.21 243.87,331.13 246.59,332.03 C250.21,333.22 250.98,334.69 248.50,335.64 C247.62,335.98 246.22,335.25 245.11,333.89 C243.50,331.90 243.00,331.76 241.61,332.90 C239.11,334.98 239.64,335.92 244.51,338.00 C247.30,339.20 249.47,340.94 250.22,342.58 C251.29,344.93 251.16,345.45 249.10,347.12 C246.62,349.12 239.61,349.67 237.06,348.06 ZM 269.45 346.55 C266.36,343.45 266.20,338.29 269.07,334.63 C270.68,332.59 272.02,332.00 275.07,332.00 C279.15,332.00 279.62,331.53 278.02,329.00 C276.97,327.33 278.81,326.19 282.75,326.07 C284.94,326.00 285.00,326.26 285.00,336.30 C285.00,342.98 285.42,347.02 286.20,347.80 C287.13,348.73 285.68,349.00 279.65,349.00 C272.76,349.00 271.64,348.73 269.45,346.55 ZM 278.80 340.67 C279.07,334.56 278.92,334.00 277.08,334.00 C275.98,334.00 274.56,334.96 273.93,336.14 C271.89,339.95 274.50,348.66 277.40,347.70 C278.01,347.50 278.63,344.38 278.80,340.67 ZM 290.22 347.44 C285.40,344.07 288.66,338.26 295.92,337.28 C300.22,336.71 300.53,336.39 299.05,334.04 C298.25,332.79 297.83,332.84 296.10,334.41 C294.88,335.51 293.39,335.98 292.36,335.58 C289.32,334.42 293.21,331.73 297.94,331.73 C304.02,331.73 306.00,333.99 306.00,340.95 C306.00,344.06 306.54,347.14 307.20,347.80 C309.16,349.76 293.05,349.42 290.22,347.44 ZM 299.80 342.74 C300.13,337.61 299.63,337.17 296.22,339.56 C293.77,341.27 293.45,343.10 295.07,346.13 C297.00,349.75 299.47,347.99 299.80,342.74 ZM 325.50 337.50 L 325.50 326.00 L 332.17 326.00 C337.86,326.00 339.29,326.38 341.86,328.53 C346.08,332.09 347.51,336.85 345.67,341.25 C343.27,346.98 339.74,349.00 332.12,349.00 L 325.50 349.00 L 325.50 337.50 ZM 337.93 345.37 C341.42,340.93 340.32,329.11 336.27,327.55 C333.54,326.50 333.00,328.12 333.00,337.39 C333.00,348.89 333.95,350.43 337.93,345.37 ZM 330.81 331.47 C330.50,331.17 329.94,331.72 329.56,332.71 C329.02,334.13 329.14,334.25 330.12,333.27 C330.81,332.59 331.11,331.78 330.81,331.47 ZM 348.50 340.50 C348.50,333.68 348.80,331.97 350.00,331.85 C359.54,330.89 365.00,331.66 365.00,333.96 C365.00,335.56 361.54,335.68 359.73,334.15 C356.84,331.71 355.79,333.99 356.16,341.89 L 356.50 349.00 L 352.50 349.00 L 348.50 349.00 L 348.50 340.50 ZM 366.96 347.07 C368.27,344.63 368.30,337.93 367.02,334.57 C366.13,332.22 366.27,332.00 368.64,332.00 L 371.22 332.00 L 368.86 330.06 C366.97,328.51 366.72,327.77 367.57,326.37 C369.03,323.99 370.24,323.73 372.42,325.32 C373.94,326.43 374.06,327.03 373.09,328.83 C372.42,330.09 372.34,331.00 372.89,331.00 C373.42,331.00 374.00,335.05 374.18,340.00 L 374.50 349.00 L 370.21 349.00 C366.29,349.00 366.02,348.84 366.96,347.07 ZM 178.25 330.33 C176.41,329.60 176.73,325.32 178.68,324.57 C181.13,323.63 183.77,326.56 182.41,328.71 C181.22,330.61 180.06,331.06 178.25,330.33 ZM 226.18 307.05 C222.70,306.06 217.30,303.94 214.18,302.34 L 208.50 299.44 L 207.85 281.47 C207.23,264.47 208.32,230.91 209.56,228.91 C209.87,228.40 209.13,226.58 207.90,224.87 C205.16,221.01 204.39,213.81 206.17,208.60 C207.71,204.06 212.00,200.40 214.59,201.40 C216.16,202.00 216.08,202.25 213.92,203.74 C212.59,204.66 210.96,206.10 210.30,206.95 C208.51,209.24 207.63,216.52 208.87,218.66 C209.84,220.33 209.95,220.27 210.04,218.00 C210.13,215.70 210.21,215.66 211.00,217.50 C211.58,218.85 211.89,219.01 211.95,218.00 C212.08,215.56 213.94,218.96 214.12,222.00 C214.26,224.36 214.30,224.37 214.71,222.25 C215.30,219.15 216.34,219.43 218.35,223.25 C219.30,225.04 219.80,225.60 219.47,224.50 C218.98,222.87 219.47,223.05 222.15,225.50 C223.95,227.15 224.81,227.70 224.07,226.73 C221.81,223.76 223.30,224.02 227.00,227.23 C229.16,229.11 229.73,229.99 228.50,229.55 C227.40,229.15 225.63,228.65 224.57,228.44 C223.51,228.22 222.21,227.61 221.67,227.07 C221.03,226.43 220.04,226.44 218.83,227.09 C217.46,227.82 216.83,227.72 216.44,226.71 C215.67,224.69 213.43,225.03 213.43,227.17 C213.43,228.18 213.84,229.00 214.34,229.00 C214.84,229.00 214.63,229.76 213.87,230.69 C212.95,231.83 212.91,232.14 213.75,231.64 C215.77,230.42 248.25,229.78 247.52,230.97 C247.16,231.56 242.85,232.00 237.55,232.00 C229.52,232.00 227.89,232.29 225.86,234.08 C223.78,235.92 223.74,236.09 225.50,235.52 C227.10,235.01 227.25,235.13 226.25,236.14 C224.22,238.18 224.81,239.08 227.75,238.45 L 230.50 237.86 L 227.75 239.66 C225.47,241.15 224.97,242.24 224.85,245.98 L 224.70 250.50 L 224.09 246.00 L 223.48 241.50 L 222.74 244.88 C222.33,246.73 221.96,251.01 221.91,254.38 C221.86,257.74 221.44,262.75 220.97,265.50 C220.31,269.32 220.21,268.14 220.56,260.50 C220.81,255.00 220.60,249.15 220.09,247.50 C219.37,245.14 219.11,246.62 218.90,254.50 L 218.63 264.50 L 218.00 256.00 C217.65,251.32 217.24,248.62 217.07,250.00 C216.77,252.41 216.74,252.39 216.00,249.50 L 215.24 246.50 L 215.11 250.00 C215.03,251.93 215.52,261.15 216.18,270.50 C217.35,286.98 217.49,287.67 220.69,293.00 C222.51,296.02 224.00,298.93 224.00,299.45 C224.00,301.04 222.35,298.85 219.58,293.60 C216.84,288.39 215.93,289.89 218.55,295.30 L 220.11 298.50 L 217.55 295.69 C214.84,292.72 214.32,292.86 216.06,296.11 C217.03,297.93 216.95,297.99 215.06,296.81 C213.93,296.10 213.00,294.95 213.00,294.26 C213.00,293.57 212.55,293.00 212.00,293.00 C209.63,293.00 211.24,296.99 214.40,298.94 C230.58,308.94 255.67,307.63 272.11,295.92 C274.87,293.96 274.99,293.53 274.85,286.68 L 274.71 279.50 L 274.10 285.10 C273.34,292.21 269.65,296.63 263.00,298.41 C260.59,299.05 260.60,299.02 263.25,297.50 C266.23,295.80 266.95,294.70 264.45,295.66 C262.88,296.26 268.09,287.52 270.50,285.50 C271.34,284.80 271.86,277.60 272.22,261.50 C272.50,248.85 272.42,242.10 272.05,246.50 L 271.37 254.50 L 271.01 247.00 L 270.65 239.50 L 270.00 246.00 C269.39,252.03 269.32,252.17 269.05,248.00 C268.79,243.84 268.71,243.73 268.05,246.50 L 267.33 249.50 L 266.52 245.58 C265.78,241.98 265.61,241.82 264.36,243.53 C263.10,245.25 262.99,245.17 262.93,242.44 C262.87,239.89 262.74,239.77 262.00,241.50 C261.27,243.19 261.13,243.01 261.07,240.33 C260.97,235.96 262.00,233.39 263.12,235.17 C263.72,236.11 264.00,235.77 264.08,234.00 L 264.20 231.50 L 265.00 234.00 C265.69,236.14 265.83,236.21 266.00,234.50 C266.17,232.79 266.31,232.86 267.00,235.00 L 267.80 237.50 L 268.02 235.00 C268.23,232.63 268.28,232.66 269.00,235.50 L 269.76 238.50 L 269.98 235.50 C270.20,232.53 270.21,232.53 271.00,235.00 L 271.80 237.50 L 272.02 235.00 C272.23,232.62 272.27,232.64 273.04,235.50 C273.65,237.78 273.81,236.95 273.73,232.00 C273.66,227.66 274.18,224.44 275.30,222.32 C276.52,220.01 276.73,218.49 276.06,216.82 C275.20,214.69 275.11,214.78 274.91,218.00 L 274.70 221.50 L 274.16 218.50 C273.63,215.54 273.61,215.55 272.88,219.50 C272.18,223.24 272.15,223.16 272.41,218.33 C272.69,213.26 272.66,213.20 270.94,215.32 C269.72,216.83 269.46,218.00 270.09,219.18 C270.59,220.11 270.95,222.14 270.90,223.68 C270.80,226.35 270.73,226.30 269.65,222.83 C267.94,217.36 267.19,217.32 267.58,222.70 C267.91,227.24 267.88,227.29 267.12,223.74 C265.98,218.46 264.77,217.69 265.58,222.77 C266.15,226.32 265.96,227.07 264.38,227.66 C263.34,228.04 262.13,228.84 261.67,229.43 C261.22,230.02 261.06,228.30 261.32,225.62 C261.57,222.93 261.50,221.13 261.14,221.62 C260.38,222.66 259.06,222.82 243.90,223.64 C234.26,224.16 231.40,223.96 226.90,222.47 C220.33,220.29 216.97,217.91 214.50,213.70 C213.07,211.25 212.99,210.80 214.19,211.77 C215.51,212.84 215.84,212.71 216.30,210.95 C216.61,209.79 217.78,208.61 218.93,208.31 C222.29,207.43 221.36,205.58 215.09,200.65 C202.55,190.80 194.39,174.69 197.01,164.96 C197.98,161.38 197.82,160.73 195.00,156.85 C188.94,148.47 187.27,134.19 191.42,126.16 C194.77,119.67 204.33,117.01 212.28,120.35 C223.45,125.05 232.12,145.74 227.95,157.73 C226.99,160.46 227.26,161.24 230.65,165.81 L 234.41 170.87 L 238.03 167.68 C240.03,165.93 242.40,164.05 243.32,163.50 C244.40,162.84 245.17,160.60 245.53,157.00 C246.08,151.62 246.02,151.46 242.79,149.50 C240.79,148.28 238.42,145.37 236.75,142.07 C234.24,137.11 234.00,135.68 234.00,125.46 C234.00,106.18 236.29,99.36 243.38,97.56 C246.39,96.80 249.77,97.30 261.75,100.27 C284.34,105.88 288.46,109.81 287.71,125.00 C286.76,144.32 276.77,156.92 262.36,156.98 C258.60,156.99 257.05,157.43 256.61,158.58 C255.72,160.90 255.79,161.00 258.25,161.02 C259.49,161.03 262.28,162.04 264.45,163.27 C269.35,166.05 273.98,174.29 274.05,180.36 L 274.09 184.50 L 276.61 179.65 C278.92,175.23 279.00,174.66 277.57,173.08 C276.63,172.03 276.00,169.52 276.00,166.78 C276.00,162.95 276.72,161.25 280.45,156.17 C285.25,149.65 293.46,142.57 298.85,140.30 C305.42,137.53 311.96,141.66 310.66,147.76 C309.79,151.90 298.50,172.87 295.42,176.09 C293.93,177.64 291.31,179.57 289.60,180.38 C287.18,181.53 285.21,184.29 280.74,192.80 C275.62,202.54 275.16,203.89 276.56,205.05 C281.28,208.96 282.25,216.79 278.88,223.74 C276.78,228.08 276.78,228.38 277.91,261.31 L 279.06 294.50 L 275.78 297.33 C271.23,301.25 262.48,305.56 255.28,307.43 C247.28,309.50 234.15,309.33 226.18,307.05 ZM 270.36 292.36 C271.81,290.91 272.99,289.00 272.97,288.11 C272.94,286.73 272.80,286.75 271.91,288.27 C271.34,289.25 270.34,289.74 269.69,289.36 C269.03,288.99 268.83,289.05 269.24,289.50 C269.65,289.95 269.09,290.95 267.99,291.72 C265.95,293.15 265.32,295.00 266.86,295.00 C267.34,295.00 268.91,293.81 270.36,292.36 ZM 212.69 286.27 C212.44,285.30 212.22,285.85 212.19,287.50 C212.17,289.15 212.38,289.95 212.66,289.27 C212.93,288.59 212.95,287.24 212.69,286.27 ZM 215.58 284.24 C214.37,283.04 213.79,285.02 214.57,287.70 L 215.39 290.50 L 215.77 287.66 C215.98,286.10 215.89,284.56 215.58,284.24 ZM 213.95 266.17 C213.88,257.00 213.43,249.02 212.95,248.44 C212.47,247.86 211.90,243.14 211.68,237.94 C211.45,232.75 211.52,238.18 211.81,250.00 C212.11,261.83 212.38,274.27 212.42,277.65 C212.47,281.04 212.86,283.59 213.29,283.32 C213.73,283.05 214.02,275.33 213.95,266.17 ZM 214.69 239.25 C214.44,238.29 214.23,239.07 214.23,241.00 C214.23,242.93 214.44,243.71 214.69,242.75 C214.94,241.79 214.94,240.21 214.69,239.25 ZM 263.68 220.81 C263.36,220.01 263.13,220.25 263.08,221.42 C263.04,222.47 263.27,223.06 263.60,222.73 C263.94,222.40 263.97,221.53 263.68,220.81 ZM 238.00 221.03 C238.00,220.50 237.39,220.30 236.64,220.59 C235.66,220.96 234.27,218.32 231.80,211.43 L 228.33 201.74 L 230.64 196.12 C236.36,182.22 230.99,166.05 218.68,160.09 C212.29,156.99 206.55,157.30 202.92,160.92 C200.07,163.78 199.63,165.36 199.94,171.50 C200.33,179.03 211.18,194.86 219.44,199.97 C222.66,201.95 224.21,205.48 228.58,220.75 C229.00,222.23 238.00,222.50 238.00,221.03 ZM 242.00 220.50 C241.32,219.68 240.63,219.00 240.48,219.00 C240.34,219.00 239.95,219.68 239.64,220.50 C239.24,221.54 239.71,222.00 241.15,222.00 C242.90,222.00 243.04,221.75 242.00,220.50 ZM 251.14 219.25 C251.25,216.89 251.33,216.82 251.71,218.75 C252.49,222.83 253.70,221.10 254.34,214.99 C254.93,209.40 255.34,208.62 260.30,203.66 C267.40,196.55 270.30,190.35 270.41,182.00 C270.51,174.72 268.55,170.23 263.67,166.60 C259.86,163.77 251.36,163.91 244.35,166.94 C239.22,169.15 234.12,173.45 235.26,174.59 C235.59,174.92 237.28,173.69 239.01,171.85 C242.21,168.46 242.12,169.43 238.82,174.00 C237.44,175.91 236.90,179.03 236.54,187.17 L 236.06 197.85 L 239.46 200.84 C241.34,202.48 243.83,204.13 245.01,204.50 C247.00,205.13 247.12,205.74 246.82,213.59 C246.51,221.75 246.57,222.00 248.75,222.00 C250.50,222.00 251.03,221.39 251.14,219.25 ZM 266.11 216.75 C266.93,216.06 269.33,211.15 271.43,205.82 C277.12,191.43 284.26,178.57 286.78,178.19 C290.12,177.69 296.58,169.81 301.01,160.83 L 305.12 152.50 L 301.55 156.50 C298.35,160.09 298.13,160.19 299.49,157.50 C300.31,155.85 301.74,152.70 302.65,150.50 L 304.31 146.50 L 304.90 149.41 L 305.50 152.31 L 306.95 149.59 C308.02,147.60 308.12,146.42 307.35,145.18 C304.65,140.87 296.25,143.92 288.50,152.02 L 284.50 156.20 L 288.00 154.11 C293.99,150.51 293.50,151.79 287.08,156.52 C278.66,162.72 277.04,167.13 281.53,171.62 L 284.06 174.15 L 281.13 179.33 C278.42,184.09 265.14,212.22 263.69,216.25 C262.95,218.30 264.00,218.52 266.11,216.75 ZM 277.17 213.77 C276.43,213.03 276.30,213.42 276.73,215.08 C277.08,216.43 277.54,216.89 277.79,216.14 C278.03,215.42 277.75,214.35 277.17,213.77 ZM 239.86 205.01 C238.59,204.18 236.75,202.71 235.77,201.75 C233.51,199.52 233.00,199.55 233.00,201.92 C233.00,205.82 234.01,206.74 238.15,206.63 C242.11,206.53 242.14,206.50 239.86,205.01 ZM 254.12 160.40 C254.46,160.20 255.01,158.70 255.34,157.06 C255.92,154.16 256.05,154.10 260.72,154.63 C273.57,156.08 284.50,141.68 284.50,123.32 C284.50,115.07 282.83,111.93 276.54,108.36 C271.54,105.53 251.27,100.80 245.82,101.19 C240.37,101.58 239.28,103.63 237.89,116.07 C236.05,132.51 239.56,144.92 246.91,147.96 C250.44,149.42 250.48,149.62 248.56,156.81 L 247.15 162.13 L 250.32 161.45 C252.07,161.07 253.78,160.60 254.12,160.40 ZM 202.08 156.79 C206.11,153.80 213.93,153.81 219.71,156.82 C222.03,158.02 224.16,159.00 224.46,159.00 C225.65,159.00 224.90,146.02 223.41,140.93 C219.75,128.43 212.01,121.29 203.18,122.28 C191.92,123.55 189.09,136.16 196.13,153.75 C197.29,156.64 198.42,159.00 198.66,159.00 C198.89,159.00 200.43,158.00 202.08,156.79 ZM 235.00 303.33 C233.07,302.50 230.43,300.85 229.11,299.66 L 226.73 297.50 L 228.03 300.00 C229.17,302.19 229.14,302.35 227.83,301.27 C227.01,300.59 225.05,297.66 223.49,294.77 C221.20,290.55 221.02,289.80 222.56,291.00 C223.62,291.83 225.30,293.50 226.30,294.73 C227.30,295.96 228.43,296.86 228.81,296.74 C229.19,296.62 231.90,298.43 234.84,300.76 C240.53,305.28 240.56,305.72 235.00,303.33 ZM 187.19 296.75 C183.32,292.76 179.23,288.31 178.09,286.86 C176.11,284.33 175.88,284.28 172.27,285.57 C167.33,287.33 151.97,287.43 149.62,285.71 C147.96,284.49 147.96,284.34 149.76,282.72 C153.01,279.78 161.78,278.58 168.15,280.20 L 173.66 281.60 L 168.66 273.55 C165.90,269.12 163.05,264.49 162.30,263.25 C161.49,261.90 159.98,261.00 158.52,261.00 C154.18,261.00 141.44,256.40 136.66,253.11 C131.83,249.79 130.58,247.00 133.92,247.00 C137.24,247.00 153.35,253.09 156.68,255.59 L 159.86 257.99 L 157.54 252.25 C156.26,249.09 154.45,243.30 153.51,239.39 C151.96,232.94 151.47,232.12 148.34,230.63 C146.45,229.72 145.15,228.57 145.46,228.06 C145.78,227.55 145.51,226.81 144.86,226.41 C144.13,225.96 143.96,226.12 144.40,226.85 C146.12,229.63 142.58,227.60 138.00,223.18 C133.30,218.66 131.57,215.00 134.13,215.00 C136.08,215.00 142.32,219.14 146.75,223.36 L 151.00 227.42 L 151.00 222.61 C151.00,218.87 150.23,216.55 147.51,212.15 C142.67,204.30 141.18,196.44 143.42,190.58 C145.06,186.28 147.54,183.20 148.55,184.22 C148.82,184.49 150.02,188.04 151.20,192.11 C153.03,198.38 153.37,202.18 153.43,217.20 C153.48,229.94 153.85,235.25 154.75,236.15 C155.75,237.15 156.00,236.81 156.02,234.45 C156.06,228.81 163.50,217.17 165.68,219.34 C167.51,221.18 161.95,240.19 158.45,244.05 C157.16,245.48 157.16,246.20 158.40,249.73 C159.69,253.38 165.64,265.97 166.46,266.80 C166.65,266.98 166.80,264.43 166.80,261.13 C166.80,257.84 167.35,253.42 168.02,251.32 C169.56,246.52 173.11,240.00 174.18,240.00 C176.61,240.00 174.01,259.57 170.91,264.62 C169.86,266.33 169.00,268.67 169.00,269.81 C169.00,272.43 178.87,285.57 188.66,295.98 C192.81,300.39 195.76,304.00 195.22,304.00 C194.68,304.00 191.07,300.74 187.19,296.75 ZM 166.78 284.27 C164.19,284.06 159.69,284.06 156.78,284.26 C153.88,284.46 156.00,284.63 161.50,284.63 C167.00,284.64 169.38,284.47 166.78,284.27 ZM 162.50 282.06 L 166.50 281.23 L 162.00 281.19 C159.52,281.16 156.60,281.53 155.50,282.00 C153.67,282.78 153.72,282.86 156.00,282.87 C157.38,282.88 160.30,282.51 162.50,282.06 ZM 172.36 253.50 L 172.93 247.50 L 171.63 252.50 C170.92,255.25 170.05,259.08 169.70,261.00 C169.07,264.40 169.09,264.43 170.43,262.00 C171.18,260.62 172.05,256.80 172.36,253.50 ZM 170.51 251.00 C170.88,249.20 170.77,248.92 170.11,250.00 C169.60,250.82 168.93,253.75 168.62,256.50 C168.07,261.35 168.08,261.38 169.02,257.50 C169.55,255.30 170.22,252.38 170.51,251.00 ZM 155.90 258.09 C157.56,257.03 153.44,254.64 146.19,252.46 C139.24,250.37 140.13,251.33 148.12,254.55 C152.04,256.13 154.81,257.56 154.28,257.74 C153.75,257.92 149.53,256.50 144.90,254.58 C140.28,252.67 137.58,251.87 138.89,252.80 C141.32,254.52 151.66,258.87 153.50,258.93 C154.05,258.95 155.13,258.57 155.90,258.09 ZM 159.90 239.20 C161.79,235.50 163.90,226.92 162.63,228.09 C161.81,228.84 156.98,243.00 157.54,243.00 C157.77,243.00 158.83,241.29 159.90,239.20 ZM 160.60 228.76 C162.21,224.63 162.48,223.19 161.46,224.03 C160.66,224.70 159.33,227.52 158.50,230.30 C157.07,235.12 156.53,239.08 157.71,236.10 C158.02,235.32 159.32,232.02 160.60,228.76 ZM 147.92 226.40 C146.59,224.97 144.15,222.87 142.50,221.72 L 139.50 219.64 L 141.92 222.32 C145.22,225.96 143.89,225.70 139.28,221.80 L 135.50 218.60 L 138.95 222.30 C141.12,224.64 143.00,225.82 144.03,225.49 C144.94,225.20 146.48,225.87 147.49,226.99 C148.49,228.09 149.54,229.00 149.83,229.00 C150.11,229.00 149.26,227.83 147.92,226.40 ZM 151.98 205.74 C152.00,201.43 148.81,187.48 147.52,186.19 C146.95,185.61 146.61,192.26 146.91,198.50 C147.02,200.70 147.82,204.89 148.71,207.81 C150.57,213.98 151.96,213.11 151.98,205.74 ZM 145.07 197.48 L 144.26 190.50 L 144.13 196.17 C144.01,201.27 144.73,205.60 145.56,204.77 C145.74,204.60 145.52,201.31 145.07,197.48 ZM 290.41 301.89 C293.90,299.14 308.33,281.98 312.79,275.25 L 316.28 270.01 L 313.59 264.02 C310.37,256.85 308.57,240.39 311.09,241.16 C314.04,242.06 317.33,250.95 317.81,259.33 L 318.28 267.37 L 321.10 261.94 C322.65,258.95 324.84,254.13 325.95,251.23 L 327.99 245.96 L 325.14 242.04 C322.21,237.99 318.20,222.11 319.55,219.92 C321.34,217.03 328.93,228.58 328.98,234.25 C328.99,235.76 329.40,237.00 329.88,237.00 C331.27,237.00 332.13,227.37 331.99,213.35 C331.88,202.31 332.20,199.38 334.30,192.54 C335.65,188.16 337.21,184.43 337.76,184.25 C339.38,183.71 343.00,192.25 342.99,196.57 C342.99,202.40 341.35,207.28 337.47,213.05 C334.72,217.14 334.00,219.19 334.00,222.97 L 334.00 227.74 L 337.68 224.27 C342.15,220.05 348.42,216.00 350.48,216.00 C355.44,216.00 348.26,224.41 338.59,229.95 C334.60,232.23 332.83,233.91 332.39,235.82 C331.01,241.91 328.60,249.76 326.93,253.67 L 325.14 257.85 L 328.51 255.56 C330.36,254.30 335.68,252.09 340.33,250.64 C352.44,246.86 355.67,247.20 350.75,251.72 C346.98,255.17 338.78,258.76 330.94,260.37 C326.36,261.31 323.12,262.54 322.50,263.56 C321.95,264.47 319.14,268.76 316.25,273.10 C313.36,277.44 311.00,281.21 311.00,281.47 C311.00,281.73 312.15,281.51 313.57,280.98 C320.54,278.33 335.50,281.07 335.50,285.00 C335.50,287.12 316.55,287.67 311.80,285.69 L 308.49 284.31 L 299.61 294.15 C294.73,299.57 290.06,304.00 289.23,304.00 C288.27,304.00 288.69,303.24 290.41,301.89 ZM 331.00 285.00 C331.00,284.39 327.35,284.06 321.75,284.15 C314.25,284.27 313.35,284.43 317.00,285.00 C324.06,286.10 331.00,286.10 331.00,285.00 ZM 326.66 281.90 C324.28,281.34 322.20,281.36 321.16,281.97 C319.95,282.68 320.99,282.92 325.00,282.87 C330.48,282.80 330.49,282.80 326.66,281.90 ZM 313.61 253.96 C312.49,248.81 312.18,248.21 312.11,251.00 C312.00,254.78 314.04,263.16 314.65,261.46 C314.86,260.89 314.39,257.52 313.61,253.96 ZM 316.66 258.75 C316.38,258.06 316.16,258.62 316.16,260.00 C316.16,261.38 316.38,261.94 316.66,261.25 C316.94,260.56 316.94,259.44 316.66,258.75 ZM 338.56 256.97 C341.83,255.86 345.62,254.06 347.00,252.99 C348.77,251.61 347.15,252.01 341.50,254.36 C337.10,256.20 332.83,257.95 332.00,258.27 C327.97,259.81 333.36,258.74 338.56,256.97 ZM 338.26 254.30 C341.97,252.86 344.86,251.53 344.67,251.34 C344.15,250.81 333.62,254.59 330.37,256.47 C326.95,258.45 329.12,257.85 338.26,254.30 ZM 315.01 250.95 L 313.94 248.50 L 314.46 251.00 C314.74,252.38 315.04,254.40 315.12,255.50 C315.27,257.45 315.28,257.45 315.68,255.45 C315.90,254.33 315.60,252.30 315.01,250.95 ZM 325.32 235.44 C322.57,227.26 321.02,226.05 322.91,233.55 C323.92,237.57 326.59,243.00 327.55,243.00 C327.72,243.00 326.72,239.60 325.32,235.44 ZM 326.99 231.87 C326.38,229.47 325.03,226.38 323.98,225.00 C322.42,222.96 322.56,223.83 324.75,229.70 C327.71,237.66 328.68,238.60 326.99,231.87 ZM 345.50 220.71 C347.19,219.01 343.82,221.08 339.75,224.25 C337.69,225.86 336.00,227.63 336.00,228.20 C336.00,229.05 341.58,224.66 345.50,220.71 ZM 348.00 221.38 C349.66,219.50 348.99,219.85 346.00,222.42 C339.89,227.66 338.94,228.71 342.50,226.26 C344.15,225.12 346.62,222.93 348.00,221.38 ZM 336.96 207.39 C338.92,201.06 339.74,189.08 338.32,187.65 C337.95,187.28 336.56,190.69 335.25,195.24 C333.41,201.56 333.00,204.73 333.50,208.75 C333.85,211.64 334.32,214.00 334.53,214.00 C334.75,214.00 335.84,211.03 336.96,207.39 ZM 341.85 197.00 C341.86,195.07 341.47,192.60 341.00,191.50 C340.40,190.09 340.12,191.43 340.06,196.00 C340.01,199.57 339.75,203.62 339.47,205.00 C339.16,206.58 339.50,206.21 340.41,204.00 C341.20,202.07 341.85,198.93 341.85,197.00 ZM 257.62 239.25 C257.28,238.29 256.74,236.94 256.42,236.25 C256.08,235.53 256.51,235.00 257.42,235.00 C258.51,235.00 259.00,235.93 259.00,238.00 C259.00,241.39 258.52,241.82 257.62,239.25 ZM 259.10 227.50 C258.99,225.83 258.81,225.75 258.00,227.00 C257.21,228.22 257.03,228.09 257.02,226.31 C257.01,225.10 257.45,223.84 258.01,223.50 C259.28,222.71 260.32,225.30 259.70,227.69 C259.29,229.29 259.22,229.27 259.10,227.50 ZM 328.56 165.45 C326.58,162.42 327.25,159.54 330.44,157.45 C335.05,154.43 341.22,159.68 338.73,164.50 C336.47,168.88 331.13,169.38 328.56,165.45 ZM 336.81 162.82 C337.03,160.93 336.51,159.81 335.06,159.03 C333.68,158.30 333.00,158.27 333.00,158.96 C333.00,159.53 332.21,160.01 331.25,160.02 C329.75,160.03 329.72,160.17 331.00,161.00 C332.28,161.82 332.23,161.97 330.71,161.98 C329.22,162.00 329.11,162.34 330.03,164.06 C331.72,167.21 336.40,166.35 336.81,162.82 ZM 170.57 162.43 C167.03,158.89 170.00,152.00 175.07,152.00 C179.50,152.00 181.94,160.89 178.07,162.96 C175.29,164.45 172.38,164.24 170.57,162.43 ZM 177.82 160.36 C180.00,156.46 175.39,152.18 172.32,155.25 C171.04,156.53 171.06,156.92 172.49,158.35 C173.39,159.25 173.85,160.44 173.50,160.99 C173.16,161.55 173.79,162.00 174.89,162.00 C176.00,162.00 177.31,161.26 177.82,160.36 ZM 337.08 151.41 C333.20,148.15 333.04,144.30 336.59,140.08 C338.52,137.78 340.02,137.00 342.50,137.00 C344.98,137.00 346.48,137.78 348.41,140.08 C351.80,144.11 351.70,147.45 348.08,151.08 C344.45,154.70 341.11,154.80 337.08,151.41 ZM 343.40 150.85 C342.95,150.11 343.13,149.96 343.91,150.44 C345.64,151.51 349.00,148.15 349.00,145.35 C349.00,142.69 344.87,137.90 344.23,139.81 C344.01,140.47 342.94,141.00 341.86,141.00 C340.77,141.00 340.16,141.45 340.50,142.00 C340.84,142.55 340.64,143.00 340.06,143.00 C339.48,143.00 339.00,143.68 339.00,144.50 C339.00,145.32 338.58,146.00 338.07,146.00 C337.55,146.00 337.34,144.76 337.59,143.25 C337.93,141.17 337.80,140.86 337.04,142.00 C335.44,144.38 335.83,147.44 338.04,149.81 C340.16,152.08 344.71,152.96 343.40,150.85 ZM 155.32 150.75 C152.44,147.55 151.93,145.49 153.15,142.00 C155.23,136.03 164.05,134.38 167.50,139.30 C169.99,142.85 169.43,148.51 166.37,150.93 C162.84,153.70 157.91,153.62 155.32,150.75 ZM 165.17 149.25 C167.58,146.40 167.38,141.38 164.79,139.56 C161.78,137.46 159.68,137.60 156.86,140.08 C155.56,141.22 155.11,141.84 155.86,141.45 C156.88,140.92 157.04,141.28 156.52,142.93 C156.02,144.52 156.44,145.65 158.07,147.06 C159.31,148.14 160.08,149.26 159.78,149.55 C159.48,149.85 158.51,149.37 157.62,148.48 C156.73,147.59 156.00,147.25 156.00,147.73 C156.00,151.03 162.72,152.14 165.17,149.25 ZM 230.00 215.00 C228.82,212.69 228.09,210.58 228.36,210.31 C228.64,210.03 229.82,211.69 231.00,214.00 C232.18,216.31 232.91,218.42 232.64,218.69 C232.36,218.97 231.18,217.31 230.00,215.00 ZM 226.09 195.50 C226.00,191.95 225.55,191.25 222.09,189.28 C217.62,186.72 210.39,176.59 209.44,171.54 C208.66,167.36 209.25,164.42 210.81,164.75 C213.11,165.23 211.97,163.37 209.25,162.21 C206.51,161.04 206.52,161.04 209.92,161.53 C214.97,162.25 219.45,166.22 222.82,172.95 C226.61,180.53 228.72,191.64 227.26,196.22 L 226.20 199.50 L 226.09 195.50 ZM 222.00 185.61 C222.00,185.39 221.30,184.95 220.45,184.62 C219.56,184.28 219.16,184.44 219.51,185.01 C220.09,185.96 222.00,186.42 222.00,185.61 ZM 217.00 179.61 C217.00,179.39 216.30,178.95 215.45,178.62 C214.56,178.28 214.16,178.44 214.51,179.01 C215.09,179.96 217.00,180.42 217.00,179.61 ZM 212.12 171.73 C211.14,170.75 211.02,170.87 211.56,172.29 C211.94,173.28 212.50,173.83 212.81,173.53 C213.11,173.22 212.81,172.41 212.12,171.73 ZM 230.74 185.73 C230.32,182.56 229.33,178.06 228.54,175.73 C227.27,172.00 227.28,171.73 228.57,173.47 C230.71,176.34 232.15,182.51 231.80,187.31 C231.51,191.40 231.48,191.37 230.74,185.73 ZM 207.88 185.00 C205.53,182.52 203.49,179.02 202.54,175.82 C200.78,169.89 200.62,165.69 202.35,171.00 C202.98,172.93 205.33,177.20 207.58,180.50 C209.82,183.80 211.98,187.06 212.38,187.75 C213.87,190.29 211.58,188.89 207.88,185.00 ZM 249.27 217.00 C249.27,214.52 249.47,213.51 249.71,214.75 C249.94,215.99 249.94,218.01 249.71,219.25 C249.47,220.49 249.27,219.48 249.27,217.00 ZM 242.88 198.12 C238.66,193.90 237.92,191.43 240.89,191.43 C242.15,191.43 242.60,191.94 242.24,192.96 C241.82,194.18 241.97,194.25 243.01,193.29 C244.04,192.34 244.92,192.52 247.16,194.11 C248.72,195.23 250.00,195.83 250.00,195.45 C250.00,195.07 250.65,195.29 251.44,195.95 C252.23,196.61 252.63,197.81 252.32,198.61 C252.01,199.42 252.15,200.01 252.63,199.92 C253.11,199.83 254.40,199.82 255.50,199.90 C259.15,200.14 254.89,201.97 250.63,201.98 C247.46,202.00 246.06,201.30 242.88,198.12 ZM 263.10 186.31 C263.00,182.24 261.08,179.05 260.92,182.69 C260.87,183.88 260.49,183.53 259.82,181.68 C259.17,179.90 258.28,179.06 257.39,179.40 C255.95,179.96 255.79,179.51 255.70,174.50 C255.64,171.01 254.56,170.04 250.70,170.02 C247.27,170.00 243.58,173.50 240.97,179.26 C239.91,181.59 239.03,182.70 239.02,181.72 C238.98,178.43 241.70,173.43 245.07,170.60 C247.89,168.23 249.03,167.87 252.45,168.33 C259.99,169.34 266.57,180.06 264.19,187.44 L 263.20 190.50 L 263.10 186.31 ZM 266.40 175.29 C265.24,172.93 264.67,171.00 265.12,171.00 C266.26,171.00 269.19,176.85 268.81,178.36 C268.64,179.04 267.55,177.66 266.40,175.29 ZM 282.56 169.75 C281.68,165.61 282.47,163.22 286.00,159.35 L 289.50 155.50 L 289.81 160.94 C290.09,165.89 289.85,166.64 287.11,169.19 C283.48,172.58 283.17,172.62 282.56,169.75 ZM 285.68 166.81 C285.36,166.01 285.13,166.25 285.08,167.42 C285.04,168.47 285.27,169.06 285.60,168.73 C285.94,168.40 285.97,167.53 285.68,166.81 ZM 287.68 164.81 C287.36,164.01 287.13,164.25 287.08,165.42 C287.04,166.47 287.27,167.06 287.60,166.73 C287.94,166.40 287.97,165.53 287.68,164.81 ZM 252.09 158.00 C252.06,156.62 252.47,154.82 253.00,154.00 C253.80,152.76 253.96,152.85 253.91,154.50 C253.88,155.60 253.47,157.40 253.00,158.50 C252.21,160.33 252.14,160.29 252.09,158.00 ZM 261.48 151.92 C259.76,151.24 259.84,151.13 262.17,151.07 C263.64,151.03 265.62,150.70 266.58,150.33 C267.68,149.91 268.09,150.05 267.68,150.71 C266.74,152.23 263.77,152.81 261.48,151.92 ZM 264.00 149.58 C264.00,149.28 266.25,147.89 269.00,146.50 C274.53,143.70 275.47,143.83 271.25,146.80 C268.35,148.85 264.00,150.51 264.00,149.58 ZM 254.65 139.00 C255.01,136.52 255.59,128.43 255.93,121.00 C256.54,107.59 256.55,107.55 257.40,114.39 C258.45,122.81 257.46,136.04 255.46,140.33 L 253.99 143.50 L 254.65 139.00 ZM 268.45 139.75 C268.83,137.96 269.50,132.54 269.93,127.70 C271.04,115.13 272.66,114.79 271.86,127.29 C271.24,136.87 269.89,143.00 268.40,143.00 C268.04,143.00 268.06,141.54 268.45,139.75 ZM 262.68 136.00 C263.13,132.43 263.38,126.80 263.24,123.50 C262.85,114.26 264.32,110.86 264.97,119.50 C265.64,128.37 264.65,139.76 263.07,141.31 C262.13,142.24 262.04,141.08 262.68,136.00 ZM 276.55 133.00 C277.45,123.20 278.81,121.80 278.37,131.13 C278.18,135.11 277.54,138.85 276.94,139.44 C276.16,140.20 276.05,138.40 276.55,133.00 ZM 248.60 124.50 C248.95,117.90 249.54,112.17 249.91,111.76 C251.06,110.49 250.25,132.75 249.07,134.68 C248.24,136.04 248.12,133.49 248.60,124.50 ZM 241.02 124.81 C241.01,120.58 241.45,116.84 242.00,116.50 C243.31,115.69 243.31,128.97 242.00,131.00 C241.33,132.04 241.03,130.14 241.02,124.81 ZM 199.26 155.75 C198.72,155.06 198.24,153.82 198.21,153.00 C198.17,152.18 197.82,150.38 197.42,149.00 C196.55,145.96 196.96,146.35 200.02,151.43 C201.32,153.59 201.77,154.98 201.02,154.51 C200.02,153.89 199.83,154.11 200.30,155.34 C201.06,157.31 200.63,157.48 199.26,155.75 ZM 206.53 144.76 C204.02,143.86 203.84,143.58 205.38,143.04 C207.05,142.46 206.96,142.11 204.35,138.99 C202.78,137.12 202.13,135.97 202.89,136.44 C203.99,137.11 204.18,136.73 203.80,134.71 C203.52,133.29 203.68,131.54 204.14,130.81 C204.74,129.86 204.98,130.04 205.00,131.50 C205.02,132.98 205.25,133.15 205.88,132.17 C206.51,131.17 206.88,131.42 207.36,133.17 C207.76,134.61 208.29,135.08 208.75,134.40 C209.23,133.70 210.39,134.40 212.00,136.36 C213.38,138.05 213.90,139.05 213.16,138.60 C212.18,137.99 211.88,138.40 212.02,140.14 C212.54,146.35 212.04,146.77 206.53,144.76 ZM 208.68 141.81 C208.36,141.01 208.13,141.25 208.08,142.42 C208.04,143.47 208.27,144.06 208.60,143.73 C208.94,143.40 208.97,142.53 208.68,141.81 ZM 208.66 136.75 C208.38,136.06 208.16,136.62 208.16,138.00 C208.16,139.38 208.38,139.94 208.66,139.25 C208.94,138.56 208.94,137.44 208.66,136.75 ZM 205.68 135.81 C205.36,135.01 205.13,135.25 205.08,136.42 C205.04,137.47 205.27,138.06 205.60,137.73 C205.94,137.40 205.97,136.53 205.68,135.81 ZM 218.20 137.47 C217.00,135.01 216.06,132.73 216.11,132.40 C216.16,132.08 214.91,130.45 213.35,128.78 C211.28,126.58 211.05,126.03 212.50,126.78 C216.23,128.72 219.25,132.88 220.04,137.20 C220.47,139.56 220.73,141.60 220.60,141.73 C220.48,141.85 219.40,139.94 218.20,137.47 ZM 219.00 134.62 C219.00,134.41 218.21,133.63 217.25,132.87 C215.66,131.63 215.63,131.66 216.87,133.25 C218.18,134.92 219.00,135.45 219.00,134.62 ZM 339.00 149.00 C337.62,147.92 336.99,147.03 337.60,147.02 C338.20,147.01 339.50,147.90 340.50,149.00 C342.78,151.52 342.22,151.52 339.00,149.00 Z" fill="rgba(0,0,0,1)"/>
</g>
</svg>